REM GoldWave
FILE "Беседа Зазнобина В.М. и писателя Меняйлова А.А. (27 декабря 2012 г.).m4a" BINARY
  TRACK 01 AUDIO
    TITLE "00:00:00.00000"
    PERFORMER "Владимир Михайлович Зазнобин. Видеоархив"
    INDEX 01 00:00:00
  TRACK 02 AUDIO
    TITLE "00:00:16.03190"
    PERFORMER "Владимир Михайлович Зазнобин. Видеоархив"
    INDEX 01 00:16:02
  TRACK 03 AUDIO
    TITLE "00:00:43.56930"
    PERFORMER "Владимир Михайлович Зазнобин. Видеоархив"
    INDEX 01 00:43:43
  TRACK 04 AUDIO
    TITLE "00:01:01.46717"
    PERFORMER "Владимир Михайлович Зазнобин. Видеоархив"
    INDEX 01 01:01:35
  TRACK 05 AUDIO
    TITLE "00:01:18.46086"
    PERFORMER "Владимир Михайлович Зазнобин. Видеоархив"
    INDEX 01 01:18:35
  TRACK 06 AUDIO
    TITLE "00:01:32.90871"
    PERFORMER "Владимир Михайлович Зазнобин. Видеоархив"
    INDEX 01 01:32:68
  TRACK 07 AUDIO
    TITLE "00:01:49.18349"
    PERFORMER "Владимир Михайлович Зазнобин. Видеоархив"
    INDEX 01 01:49:14
  TRACK 08 AUDIO
    TITLE "00:02:03.30626"
    PERFORMER "Владимир Михайлович Зазнобин. Видеоархив"
    INDEX 01 02:03:23
  TRACK 09 AUDIO
    TITLE "00:02:19.77193"
    PERFORMER "Владимир Михайлович Зазнобин. Видеоархив"
    INDEX 01 02:19:58
  TRACK 10 AUDIO
    TITLE "00:02:33.20646"
    PERFORMER "Владимир Михайлович Зазнобин. Видеоархив"
    INDEX 01 02:33:15
  TRACK 11 AUDIO
    TITLE "00:02:48.97272"
    PERFORMER "Владимир Михайлович Зазнобин. Видеоархив"
    INDEX 01 02:48:73
  TRACK 12 AUDIO
    TITLE "00:03:03.70805"
    PERFORMER "Владимир Михайлович Зазнобин. Видеоархив"
    INDEX 01 03:03:53
  TRACK 13 AUDIO
    TITLE "00:03:18.85991"
    PERFORMER "Владимир Михайлович Зазнобин. Видеоархив"
    INDEX 01 03:18:64
  TRACK 14 AUDIO
    TITLE "00:03:45.73556"
    PERFORMER "Владимир Михайлович Зазнобин. Видеоархив"
    INDEX 01 03:45:55
  TRACK 15 AUDIO
    TITLE "00:03:59.56435"
    PERFORMER "Владимир Михайлович Зазнобин. Видеоархив"
    INDEX 01 03:59:42
  TRACK 16 AUDIO
    TITLE "00:04:13.71823"
    PERFORMER "Владимир Михайлович Зазнобин. Видеоархив"
    INDEX 01 04:13:54
  TRACK 17 AUDIO
    TITLE "00:04:26.75989"
    PERFORMER "Владимир Михайлович Зазнобин. Видеоархив"
    INDEX 01 04:26:57
  TRACK 18 AUDIO
    TITLE "00:04:40.25061"
    PERFORMER "Владимир Михайлович Зазнобин. Видеоархив"
    INDEX 01 04:40:19
  TRACK 19 AUDIO
    TITLE "00:04:58.27433"
    PERFORMER "Владимир Михайлович Зазнобин. Видеоархив"
    INDEX 01 04:58:21
  TRACK 20 AUDIO
    TITLE "00:05:12.64277"
    PERFORMER "Владимир Михайлович Зазнобин. Видеоархив"
    INDEX 01 05:12:48
  TRACK 21 AUDIO
    TITLE "00:05:29.22034"
    PERFORMER "Владимир Михайлович Зазнобин. Видеоархив"
    INDEX 01 05:29:17
  TRACK 22 AUDIO
    TITLE "00:05:42.31726"
    PERFORMER "Владимир Михайлович Зазнобин. Видеоархив"
    INDEX 01 05:42:24
  TRACK 23 AUDIO
    TITLE "00:05:58.64313"
    PERFORMER "Владимир Михайлович Зазнобин. Видеоархив"
    INDEX 01 05:58:48
  TRACK 24 AUDIO
    TITLE "00:06:12.12224"
    PERFORMER "Владимир Михайлович Зазнобин. Видеоархив"
    INDEX 01 06:12:09
  TRACK 25 AUDIO
    TITLE "00:06:26.19020"
    PERFORMER "Владимир Михайлович Зазнобин. Видеоархив"
    INDEX 01 06:26:14
  TRACK 26 AUDIO
    TITLE "00:06:40.78853"
    PERFORMER "Владимир Михайлович Зазнобин. Видеоархив"
    INDEX 01 06:40:59
  TRACK 27 AUDIO
    TITLE "00:07:02.21351"
    PERFORMER "Владимир Михайлович Зазнобин. Видеоархив"
    INDEX 01 07:02:16
  TRACK 28 AUDIO
    TITLE "00:07:17.30732"
    PERFORMER "Владимир Михайлович Зазнобин. Видеоархив"
    INDEX 01 07:17:23
  TRACK 29 AUDIO
    TITLE "00:07:33.06664"
    PERFORMER "Владимир Михайлович Зазнобин. Видеоархив"
    INDEX 01 07:33:05
  TRACK 30 AUDIO
    TITLE "00:07:52.68279"
    PERFORMER "Владимир Михайлович Зазнобин. Видеоархив"
    INDEX 01 07:52:51
  TRACK 31 AUDIO
    TITLE "00:08:09.85526"
    PERFORMER "Владимир Михайлович Зазнобин. Видеоархив"
    INDEX 01 08:09:64
  TRACK 32 AUDIO
    TITLE "00:08:26.81782"
    PERFORMER "Владимир Михайлович Зазнобин. Видеоархив"
    INDEX 01 08:26:61
  TRACK 33 AUDIO
    TITLE "00:08:57.38497"
    PERFORMER "Владимир Михайлович Зазнобин. Видеоархив"
    INDEX 01 08:57:29
  TRACK 34 AUDIO
    TITLE "00:09:20.36707"
    PERFORMER "Владимир Михайлович Зазнобин. Видеоархив"
    INDEX 01 09:20:28
  TRACK 35 AUDIO
    TITLE "00:09:38.11587"
    PERFORMER "Владимир Михайлович Зазнобин. Видеоархив"
    INDEX 01 09:38:09
  TRACK 36 AUDIO
    TITLE "00:09:53.72798"
    PERFORMER "Владимир Михайлович Зазнобин. Видеоархив"
    INDEX 01 09:53:55
  TRACK 37 AUDIO
    TITLE "00:10:12.78034"
    PERFORMER "Владимир Михайлович Зазнобин. Видеоархив"
    INDEX 01 10:12:59
  TRACK 38 AUDIO
    TITLE "00:10:26.29057"
    PERFORMER "Владимир Михайлович Зазнобин. Видеоархив"
    INDEX 01 10:26:22
  TRACK 39 AUDIO
    TITLE "00:10:42.32202"
    PERFORMER "Владимир Михайлович Зазнобин. Видеоархив"
    INDEX 01 10:42:24
  TRACK 40 AUDIO
    TITLE "00:11:02.23213"
    PERFORMER "Владимир Михайлович Зазнобин. Видеоархив"
    INDEX 01 11:02:17
  TRACK 41 AUDIO
    TITLE "00:11:20.59671"
    PERFORMER "Владимир Михайлович Зазнобин. Видеоархив"
    INDEX 01 11:20:45
  TRACK 42 AUDIO
    TITLE "00:11:40.05170"
    PERFORMER "Владимир Михайлович Зазнобин. Видеоархив"
    INDEX 01 11:40:04
  TRACK 43 AUDIO
    TITLE "00:11:53.44676"
    PERFORMER "Владимир Михайлович Зазнобин. Видеоархив"
    INDEX 01 11:53:34
  TRACK 44 AUDIO
    TITLE "00:12:14.15379"
    PERFORMER "Владимир Михайлович Зазнобин. Видеоархив"
    INDEX 01 12:14:12
  TRACK 45 AUDIO
    TITLE "00:12:31.92163"
    PERFORMER "Владимир Михайлович Зазнобин. Видеоархив"
    INDEX 01 12:31:69
  TRACK 46 AUDIO
    TITLE "00:12:45.72070"
    PERFORMER "Владимир Михайлович Зазнобин. Видеоархив"
    INDEX 01 12:45:54
  TRACK 47 AUDIO
    TITLE "00:13:05.99397"
    PERFORMER "Владимир Михайлович Зазнобин. Видеоархив"
    INDEX 01 13:06:00
  TRACK 48 AUDIO
    TITLE "00:13:23.07776"
    PERFORMER "Владимир Михайлович Зазнобин. Видеоархив"
    INDEX 01 13:23:06
  TRACK 49 AUDIO
    TITLE "00:13:39.58243"
    PERFORMER "Владимир Михайлович Зазнобин. Видеоархив"
    INDEX 01 13:39:44
  TRACK 50 AUDIO
    TITLE "00:13:53.37825"
    PERFORMER "Владимир Михайлович Зазнобин. Видеоархив"
    INDEX 01 13:53:28
  TRACK 51 AUDIO
    TITLE "00:14:08.15814"
    PERFORMER "Владимир Михайлович Зазнобин. Видеоархив"
    INDEX 01 14:08:12
  TRACK 52 AUDIO
    TITLE "00:14:26.12429"
    PERFORMER "Владимир Михайлович Зазнобин. Видеоархив"
    INDEX 01 14:26:09
  TRACK 53 AUDIO
    TITLE "00:14:41.05651"
    PERFORMER "Владимир Михайлович Зазнобин. Видеоархив"
    INDEX 01 14:41:04
  TRACK 54 AUDIO
    TITLE "00:14:55.62834"
    PERFORMER "Владимир Михайлович Зазнобин. Видеоархив"
    INDEX 01 14:55:47
  TRACK 55 AUDIO
    TITLE "00:15:21.90304"
    PERFORMER "Владимир Михайлович Зазнобин. Видеоархив"
    INDEX 01 15:21:68
  TRACK 56 AUDIO
    TITLE "00:15:34.88710"
    PERFORMER "Владимир Михайлович Зазнобин. Видеоархив"
    INDEX 01 15:34:67
  TRACK 57 AUDIO
    TITLE "00:15:56.42771"
    PERFORMER "Владимир Михайлович Зазнобин. Видеоархив"
    INDEX 01 15:56:32
  TRACK 58 AUDIO
    TITLE "00:16:09.68995"
    PERFORMER "Владимир Михайлович Зазнобин. Видеоархив"
    INDEX 01 16:09:52
  TRACK 59 AUDIO
    TITLE "00:16:22.98145"
    PERFORMER "Владимир Михайлович Зазнобин. Видеоархив"
    INDEX 01 16:22:74
  TRACK 60 AUDIO
    TITLE "00:16:37.03642"
    PERFORMER "Владимир Михайлович Зазнобин. Видеоархив"
    INDEX 01 16:37:03
  TRACK 61 AUDIO
    TITLE "00:16:50.40918"
    PERFORMER "Владимир Михайлович Зазнобин. Видеоархив"
    INDEX 01 16:50:31
  TRACK 62 AUDIO
    TITLE "00:17:11.80166"
    PERFORMER "Владимир Михайлович Зазнобин. Видеоархив"
    INDEX 01 17:11:60
  TRACK 63 AUDIO
    TITLE "00:17:27.06961"
    PERFORMER "Владимир Михайлович Зазнобин. Видеоархив"
    INDEX 01 17:27:05
  TRACK 64 AUDIO
    TITLE "00:17:46.25667"
    PERFORMER "Владимир Михайлович Зазнобин. Видеоархив"
    INDEX 01 17:46:19
  TRACK 65 AUDIO
    TITLE "00:18:01.04120"
    PERFORMER "Владимир Михайлович Зазнобин. Видеоархив"
    INDEX 01 18:01:03
  TRACK 66 AUDIO
    TITLE "00:18:18.94558"
    PERFORMER "Владимир Михайлович Зазнобин. Видеоархив"
    INDEX 01 18:18:71
  TRACK 67 AUDIO
    TITLE "00:18:33.73615"
    PERFORMER "Владимир Михайлович Зазнобин. Видеоархив"
    INDEX 01 18:33:55
  TRACK 68 AUDIO
    TITLE "00:18:47.22222"
    PERFORMER "Владимир Михайлович Зазнобин. Видеоархив"
    INDEX 01 18:47:17
  TRACK 69 AUDIO
    TITLE "00:19:00.65769"
    PERFORMER "Владимир Михайлович Зазнобин. Видеоархив"
    INDEX 01 19:00:49
  TRACK 70 AUDIO
    TITLE "00:19:20.11454"
    PERFORMER "Владимир Михайлович Зазнобин. Видеоархив"
    INDEX 01 19:20:09
  TRACK 71 AUDIO
    TITLE "00:19:34.64875"
    PERFORMER "Владимир Михайлович Зазнобин. Видеоархив"
    INDEX 01 19:34:49
  TRACK 72 AUDIO
    TITLE "00:19:49.55265"
    PERFORMER "Владимир Михайлович Зазнобин. Видеоархив"
    INDEX 01 19:49:41
  TRACK 73 AUDIO
    TITLE "00:20:05.26785"
    PERFORMER "Владимир Михайлович Зазнобин. Видеоархив"
    INDEX 01 20:05:20
  TRACK 74 AUDIO
    TITLE "00:20:21.34805"
    PERFORMER "Владимир Михайлович Зазнобин. Видеоархив"
    INDEX 01 20:21:26
  TRACK 75 AUDIO
    TITLE "00:20:37.39669"
    PERFORMER "Владимир Михайлович Зазнобин. Видеоархив"
    INDEX 01 20:37:30
  TRACK 76 AUDIO
    TITLE "00:20:54.10707"
    PERFORMER "Владимир Михайлович Зазнобин. Видеоархив"
    INDEX 01 20:54:08
  TRACK 77 AUDIO
    TITLE "00:21:12.12245"
    PERFORMER "Владимир Михайлович Зазнобин. Видеоархив"
    INDEX 01 21:12:09
  TRACK 78 AUDIO
    TITLE "00:21:31.86676"
    PERFORMER "Владимир Михайлович Зазнобин. Видеоархив"
    INDEX 01 21:31:65
  TRACK 79 AUDIO
    TITLE "00:21:48.79590"
    PERFORMER "Владимир Михайлович Зазнобин. Видеоархив"
    INDEX 01 21:48:60
  TRACK 80 AUDIO
    TITLE "00:22:02.76170"
    PERFORMER "Владимир Михайлович Зазнобин. Видеоархив"
    INDEX 01 22:02:57
  TRACK 81 AUDIO
    TITLE "00:22:19.24639"
    PERFORMER "Владимир Михайлович Зазнобин. Видеоархив"
    INDEX 01 22:19:18
  TRACK 82 AUDIO
    TITLE "00:22:39.65063"
    PERFORMER "Владимир Михайлович Зазнобин. Видеоархив"
    INDEX 01 22:39:49
  TRACK 83 AUDIO
    TITLE "00:23:12.34658"
    PERFORMER "Владимир Михайлович Зазнобин. Видеоархив"
    INDEX 01 23:12:26
  TRACK 84 AUDIO
    TITLE "00:23:28.44211"
    PERFORMER "Владимир Михайлович Зазнобин. Видеоархив"
    INDEX 01 23:28:33
  TRACK 85 AUDIO
    TITLE "00:23:48.29045"
    PERFORMER "Владимир Михайлович Зазнобин. Видеоархив"
    INDEX 01 23:48:22
  TRACK 86 AUDIO
    TITLE "00:24:01.89821"
    PERFORMER "Владимир Михайлович Зазнобин. Видеоархив"
    INDEX 01 24:01:67
  TRACK 87 AUDIO
    TITLE "00:24:24.88263"
    PERFORMER "Владимир Михайлович Зазнобин. Видеоархив"
    INDEX 01 24:24:66
  TRACK 88 AUDIO
    TITLE "00:24:43.78639"
    PERFORMER "Владимир Михайлович Зазнобин. Видеоархив"
    INDEX 01 24:43:59
  TRACK 89 AUDIO
    TITLE "00:25:05.46633"
    PERFORMER "Владимир Михайлович Зазнобин. Видеоархив"
    INDEX 01 25:05:35
  TRACK 90 AUDIO
    TITLE "00:25:28.06764"
    PERFORMER "Владимир Михайлович Зазнобин. Видеоархив"
    INDEX 01 25:28:05
  TRACK 91 AUDIO
    TITLE "00:25:46.60220"
    PERFORMER "Владимир Михайлович Зазнобин. Видеоархив"
    INDEX 01 25:46:45
  TRACK 92 AUDIO
    TITLE "00:26:06.01306"
    PERFORMER "Владимир Михайлович Зазнобин. Видеоархив"
    INDEX 01 26:06:01
  TRACK 93 AUDIO
    TITLE "00:26:31.24798"
    PERFORMER "Владимир Михайлович Зазнобин. Видеоархив"
    INDEX 01 26:31:19
  TRACK 94 AUDIO
    TITLE "00:26:49.66134"
    PERFORMER "Владимир Михайлович Зазнобин. Видеоархив"
    INDEX 01 26:49:50
  TRACK 95 AUDIO
    TITLE "00:27:06.29882"
    PERFORMER "Владимир Михайлович Зазнобин. Видеоархив"
    INDEX 01 27:06:22
  TRACK 96 AUDIO
    TITLE "00:27:25.66698"
    PERFORMER "Владимир Михайлович Зазнобин. Видеоархив"
    INDEX 01 27:25:50
  TRACK 97 AUDIO
    TITLE "00:27:44.91392"
    PERFORMER "Владимир Михайлович Зазнобин. Видеоархив"
    INDEX 01 27:44:69
  TRACK 98 AUDIO
    TITLE "00:28:09.83073"
    PERFORMER "Владимир Михайлович Зазнобин. Видеоархив"
    INDEX 01 28:09:62
  TRACK 99 AUDIO
    TITLE "00:28:24.31433"
    PERFORMER "Владимир Михайлович Зазнобин. Видеоархив"
    INDEX 01 28:24:24
  TRACK 100 AUDIO
    TITLE "00:28:39.45227"
    PERFORMER "Владимир Михайлович Зазнобин. Видеоархив"
    INDEX 01 28:39:34
  TRACK 101 AUDIO
    TITLE "00:28:57.68172"
    PERFORMER "Владимир Михайлович Зазнобин. Видеоархив"
    INDEX 01 28:57:51
  TRACK 102 AUDIO
    TITLE "00:29:11.22540"
    PERFORMER "Владимир Михайлович Зазнобин. Видеоархив"
    INDEX 01 29:11:17
  TRACK 103 AUDIO
    TITLE "00:29:29.89973"
    PERFORMER "Владимир Михайлович Зазнобин. Видеоархив"
    INDEX 01 29:29:67
  TRACK 104 AUDIO
    TITLE "00:29:47.53429"
    PERFORMER "Владимир Михайлович Зазнобин. Видеоархив"
    INDEX 01 29:47:40
  TRACK 105 AUDIO
    TITLE "00:30:01.90923"
    PERFORMER "Владимир Михайлович Зазнобин. Видеоархив"
    INDEX 01 30:01:68
  TRACK 106 AUDIO
    TITLE "00:30:16.98354"
    PERFORMER "Владимир Михайлович Зазнобин. Видеоархив"
    INDEX 01 30:16:74
  TRACK 107 AUDIO
    TITLE "00:30:31.51964"
    PERFORMER "Владимир Михайлович Зазнобин. Видеоархив"
    INDEX 01 30:31:39
  TRACK 108 AUDIO
    TITLE "00:30:54.88857"
    PERFORMER "Владимир Михайлович Зазнобин. Видеоархив"
    INDEX 01 30:54:67
  TRACK 109 AUDIO
    TITLE "00:31:17.49268"
    PERFORMER "Владимир Михайлович Зазнобин. Видеоархив"
    INDEX 01 31:17:37
  TRACK 110 AUDIO
    TITLE "00:31:33.44424"
    PERFORMER "Владимир Михайлович Зазнобин. Видеоархив"
    INDEX 01 31:33:33
  TRACK 111 AUDIO
    TITLE "00:31:47.33946"
    PERFORMER "Владимир Михайлович Зазнобин. Видеоархив"
    INDEX 01 31:47:25
  TRACK 112 AUDIO
    TITLE "00:32:10.30624"
    PERFORMER "Владимир Михайлович Зазнобин. Видеоархив"
    INDEX 01 32:10:23
  TRACK 113 AUDIO
    TITLE "00:32:24.32961"
    PERFORMER "Владимир Михайлович Зазнобин. Видеоархив"
    INDEX 01 32:24:25
  TRACK 114 AUDIO
    TITLE "00:32:45.02224"
    PERFORMER "Владимир Михайлович Зазнобин. Видеоархив"
    INDEX 01 32:45:02
  TRACK 115 AUDIO
    TITLE "00:33:09.84200"
    PERFORMER "Владимир Михайлович Зазнобин. Видеоархив"
    INDEX 01 33:09:63
  TRACK 116 AUDIO
    TITLE "00:33:24.20624"
    PERFORMER "Владимир Михайлович Зазнобин. Видеоархив"
    INDEX 01 33:24:15
  TRACK 117 AUDIO
    TITLE "00:33:39.97020"
    PERFORMER "Владимир Михайлович Зазнобин. Видеоархив"
    INDEX 01 33:39:73
  TRACK 118 AUDIO
    TITLE "00:33:55.31340"
    PERFORMER "Владимир Михайлович Зазнобин. Видеоархив"
    INDEX 01 33:55:24
  TRACK 119 AUDIO
    TITLE "00:34:21.30297"
    PERFORMER "Владимир Михайлович Зазнобин. Видеоархив"
    INDEX 01 34:21:23
  TRACK 120 AUDIO
    TITLE "00:34:35.10762"
    PERFORMER "Владимир Михайлович Зазнобин. Видеоархив"
    INDEX 01 34:35:08
  TRACK 121 AUDIO
    TITLE "00:34:48.50964"
    PERFORMER "Владимир Михайлович Зазнобин. Видеоархив"
    INDEX 01 34:48:38
  TRACK 122 AUDIO
    TITLE "00:35:03.32900"
    PERFORMER "Владимир Михайлович Зазнобин. Видеоархив"
    INDEX 01 35:03:25
  TRACK 123 AUDIO
    TITLE "00:35:17.09186"
    PERFORMER "Владимир Михайлович Зазнобин. Видеоархив"
    INDEX 01 35:17:07
  TRACK 124 AUDIO
    TITLE "00:35:34.32379"
    PERFORMER "Владимир Михайлович Зазнобин. Видеоархив"
    INDEX 01 35:34:24
  TRACK 125 AUDIO
    TITLE "00:35:53.40263"
    PERFORMER "Владимир Михайлович Зазнобин. Видеоархив"
    INDEX 01 35:53:30
  TRACK 126 AUDIO
    TITLE "00:36:14.14215"
    PERFORMER "Владимир Михайлович Зазнобин. Видеоархив"
    INDEX 01 36:14:11
  TRACK 127 AUDIO
    TITLE "00:36:33.55256"
    PERFORMER "Владимир Михайлович Зазнобин. Видеоархив"
    INDEX 01 36:33:41
  TRACK 128 AUDIO
    TITLE "00:36:51.54562"
    PERFORMER "Владимир Михайлович Зазнобин. Видеоархив"
    INDEX 01 36:51:41
  TRACK 129 AUDIO
    TITLE "00:37:10.72617"
    PERFORMER "Владимир Михайлович Зазнобин. Видеоархив"
    INDEX 01 37:10:54
  TRACK 130 AUDIO
    TITLE "00:37:30.07946"
    PERFORMER "Владимир Михайлович Зазнобин. Видеоархив"
    INDEX 01 37:30:06
  TRACK 131 AUDIO
    TITLE "00:37:44.87422"
    PERFORMER "Владимир Михайлович Зазнобин. Видеоархив"
    INDEX 01 37:44:66
  TRACK 132 AUDIO
    TITLE "00:38:02.34531"
    PERFORMER "Владимир Михайлович Зазнобин. Видеоархив"
    INDEX 01 38:02:26
  TRACK 133 AUDIO
    TITLE "00:38:25.03531"
    PERFORMER "Владимир Михайлович Зазнобин. Видеоархив"
    INDEX 01 38:25:03
  TRACK 134 AUDIO
    TITLE "00:39:04.75111"
    PERFORMER "Владимир Михайлович Зазнобин. Видеоархив"
    INDEX 01 39:04:56
  TRACK 135 AUDIO
    TITLE "00:39:27.30413"
    PERFORMER "Владимир Михайлович Зазнобин. Видеоархив"
    INDEX 01 39:27:23
  TRACK 136 AUDIO
    TITLE "00:39:40.33229"
    PERFORMER "Владимир Михайлович Зазнобин. Видеоархив"
    INDEX 01 39:40:25
  TRACK 137 AUDIO
    TITLE "00:39:56.72644"
    PERFORMER "Владимир Михайлович Зазнобин. Видеоархив"
    INDEX 01 39:56:54
  TRACK 138 AUDIO
    TITLE "00:40:09.93619"
    PERFORMER "Владимир Михайлович Зазнобин. Видеоархив"
    INDEX 01 40:09:70
  TRACK 139 AUDIO
    TITLE "00:40:26.21751"
    PERFORMER "Владимир Михайлович Зазнобин. Видеоархив"
    INDEX 01 40:26:16
  TRACK 140 AUDIO
    TITLE "00:40:39.95156"
    PERFORMER "Владимир Михайлович Зазнобин. Видеоархив"
    INDEX 01 40:39:71
  TRACK 141 AUDIO
    TITLE "00:40:57.92884"
    PERFORMER "Владимир Михайлович Зазнобин. Видеоархив"
    INDEX 01 40:57:70
  TRACK 142 AUDIO
    TITLE "00:41:15.44916"
    PERFORMER "Владимир Михайлович Зазнобин. Видеоархив"
    INDEX 01 41:15:34
  TRACK 143 AUDIO
    TITLE "00:41:30.54438"
    PERFORMER "Владимир Михайлович Зазнобин. Видеоархив"
    INDEX 01 41:30:41
  TRACK 144 AUDIO
    TITLE "00:41:52.39429"
    PERFORMER "Владимир Михайлович Зазнобин. Видеоархив"
    INDEX 01 41:52:30
  TRACK 145 AUDIO
    TITLE "00:42:08.52744"
    PERFORMER "Владимир Михайлович Зазнобин. Видеоархив"
    INDEX 01 42:08:40
  TRACK 146 AUDIO
    TITLE "00:42:23.87760"
    PERFORMER "Владимир Михайлович Зазнобин. Видеоархив"
    INDEX 01 42:23:66
  TRACK 147 AUDIO
    TITLE "00:42:55.45993"
    PERFORMER "Владимир Михайлович Зазнобин. Видеоархив"
    INDEX 01 42:55:34
  TRACK 148 AUDIO
    TITLE "00:43:09.37741"
    PERFORMER "Владимир Михайлович Зазнобин. Видеоархив"
    INDEX 01 43:09:28
  TRACK 149 AUDIO
    TITLE "00:43:24.78472"
    PERFORMER "Владимир Михайлович Зазнобин. Видеоархив"
    INDEX 01 43:24:59
  TRACK 150 AUDIO
    TITLE "00:43:41.83599"
    PERFORMER "Владимир Михайлович Зазнобин. Видеоархив"
    INDEX 01 43:41:63
  TRACK 151 AUDIO
    TITLE "00:43:55.06526"
    PERFORMER "Владимир Михайлович Зазнобин. Видеоархив"
    INDEX 01 43:55:05
  TRACK 152 AUDIO
    TITLE "00:44:17.50308"
    PERFORMER "Владимир Михайлович Зазнобин. Видеоархив"
    INDEX 01 44:17:38
  TRACK 153 AUDIO
    TITLE "00:44:33.83780"
    PERFORMER "Владимир Михайлович Зазнобин. Видеоархив"
    INDEX 01 44:33:63
  TRACK 154 AUDIO
    TITLE "00:44:47.11583"
    PERFORMER "Владимир Михайлович Зазнобин. Видеоархив"
    INDEX 01 44:47:09
  TRACK 155 AUDIO
    TITLE "00:45:01.23209"
    PERFORMER "Владимир Михайлович Зазнобин. Видеоархив"
    INDEX 01 45:01:17
  TRACK 156 AUDIO
    TITLE "00:45:15.87034"
    PERFORMER "Владимир Михайлович Зазнобин. Видеоархив"
    INDEX 01 45:15:65
  TRACK 157 AUDIO
    TITLE "00:45:29.85844"
    PERFORMER "Владимир Михайлович Зазнобин. Видеоархив"
    INDEX 01 45:29:64
  TRACK 158 AUDIO
    TITLE "00:45:43.28274"
    PERFORMER "Владимир Михайлович Зазнобин. Видеоархив"
    INDEX 01 45:43:21
  TRACK 159 AUDIO
    TITLE "00:46:00.07488"
    PERFORMER "Владимир Михайлович Зазнобин. Видеоархив"
    INDEX 01 46:00:06
  TRACK 160 AUDIO
    TITLE "00:46:14.60537"
    PERFORMER "Владимир Михайлович Зазнобин. Видеоархив"
    INDEX 01 46:14:45
  TRACK 161 AUDIO
    TITLE "00:46:38.76753"
    PERFORMER "Владимир Михайлович Зазнобин. Видеоархив"
    INDEX 01 46:38:58
  TRACK 162 AUDIO
    TITLE "00:47:00.27658"
    PERFORMER "Владимир Михайлович Зазнобин. Видеоархив"
    INDEX 01 47:00:21
  TRACK 163 AUDIO
    TITLE "00:47:27.28129"
    PERFORMER "Владимир Михайлович Зазнобин. Видеоархив"
    INDEX 01 47:27:21
  TRACK 164 AUDIO
    TITLE "00:47:47.95859"
    PERFORMER "Владимир Михайлович Зазнобин. Видеоархив"
    INDEX 01 47:47:72
  TRACK 165 AUDIO
    TITLE "00:48:00.96263"
    PERFORMER "Владимир Михайлович Зазнобин. Видеоархив"
    INDEX 01 48:00:72
  TRACK 166 AUDIO
    TITLE "00:48:19.67878"
    PERFORMER "Владимир Михайлович Зазнобин. Видеоархив"
    INDEX 01 48:19:51
  TRACK 167 AUDIO
    TITLE "00:48:37.85156"
    PERFORMER "Владимир Михайлович Зазнобин. Видеоархив"
    INDEX 01 48:37:64
  TRACK 168 AUDIO
    TITLE "00:49:03.22116"
    PERFORMER "Владимир Михайлович Зазнобин. Видеоархив"
    INDEX 01 49:03:17
  TRACK 169 AUDIO
    TITLE "00:49:24.21052"
    PERFORMER "Владимир Михайлович Зазнобин. Видеоархив"
    INDEX 01 49:24:16
  TRACK 170 AUDIO
    TITLE "00:49:40.63995"
    PERFORMER "Владимир Михайлович Зазнобин. Видеоархив"
    INDEX 01 49:40:48
  TRACK 171 AUDIO
    TITLE "00:49:54.23238"
    PERFORMER "Владимир Михайлович Зазнобин. Видеоархив"
    INDEX 01 49:54:17
  TRACK 172 AUDIO
    TITLE "00:50:09.68054"
    PERFORMER "Владимир Михайлович Зазнобин. Видеоархив"
    INDEX 01 50:09:51
  TRACK 173 AUDIO
    TITLE "00:50:24.14558"
    PERFORMER "Владимир Михайлович Зазнобин. Видеоархив"
    INDEX 01 50:24:11
  TRACK 174 AUDIO
    TITLE "00:50:37.12964"
    PERFORMER "Владимир Михайлович Зазнобин. Видеоархив"
    INDEX 01 50:37:10
  TRACK 175 AUDIO
    TITLE "00:50:51.20410"
    PERFORMER "Владимир Михайлович Зазнобин. Видеоархив"
    INDEX 01 50:51:15
  TRACK 176 AUDIO
    TITLE "00:51:04.24111"
    PERFORMER "Владимир Михайлович Зазнобин. Видеоархив"
    INDEX 01 51:04:18
  TRACK 177 AUDIO
    TITLE "00:51:19.12272"
    PERFORMER "Владимир Михайлович Зазнобин. Видеоархив"
    INDEX 01 51:19:09
  TRACK 178 AUDIO
    TITLE "00:51:32.59347"
    PERFORMER "Владимир Михайлович Зазнобин. Видеоархив"
    INDEX 01 51:32:45
  TRACK 179 AUDIO
    TITLE "00:51:49.82585"
    PERFORMER "Владимир Михайлович Зазнобин. Видеоархив"
    INDEX 01 51:49:62
  TRACK 180 AUDIO
    TITLE "00:52:09.05143"
    PERFORMER "Владимир Михайлович Зазнобин. Видеоархив"
    INDEX 01 52:09:04
  TRACK 181 AUDIO
    TITLE "00:52:22.83937"
    PERFORMER "Владимир Михайлович Зазнобин. Видеоархив"
    INDEX 01 52:22:63
  TRACK 182 AUDIO
    TITLE "00:52:39.17918"
    PERFORMER "Владимир Михайлович Зазнобин. Видеоархив"
    INDEX 01 52:39:13
  TRACK 183 AUDIO
    TITLE "00:52:57.74206"
    PERFORMER "Владимир Михайлович Зазнобин. Видеоархив"
    INDEX 01 52:57:56
  TRACK 184 AUDIO
    TITLE "00:53:13.70061"
    PERFORMER "Владимир Михайлович Зазнобин. Видеоархив"
    INDEX 01 53:13:53
  TRACK 185 AUDIO
    TITLE "00:53:28.32492"
    PERFORMER "Владимир Михайлович Зазнобин. Видеоархив"
    INDEX 01 53:28:24
  TRACK 186 AUDIO
    TITLE "00:53:45.05807"
    PERFORMER "Владимир Михайлович Зазнобин. Видеоархив"
    INDEX 01 53:45:04
  TRACK 187 AUDIO
    TITLE "00:53:59.10515"
    PERFORMER "Владимир Михайлович Зазнобин. Видеоархив"
    INDEX 01 53:59:08
  TRACK 188 AUDIO
    TITLE "00:54:14.03320"
    PERFORMER "Владимир Михайлович Зазнобин. Видеоархив"
    INDEX 01 54:14:02
  TRACK 189 AUDIO
    TITLE "00:54:32.26263"
    PERFORMER "Владимир Михайлович Зазнобин. Видеоархив"
    INDEX 01 54:32:20
  TRACK 190 AUDIO
    TITLE "00:54:46.65848"
    PERFORMER "Владимир Михайлович Зазнобин. Видеоархив"
    INDEX 01 54:46:49
  TRACK 191 AUDIO
    TITLE "00:55:05.31193"
    PERFORMER "Владимир Михайлович Зазнобин. Видеоархив"
    INDEX 01 55:05:23
  TRACK 192 AUDIO
    TITLE "00:55:21.85188"
    PERFORMER "Владимир Михайлович Зазнобин. Видеоархив"
    INDEX 01 55:21:64
  TRACK 193 AUDIO
    TITLE "00:55:36.02574"
    PERFORMER "Владимир Михайлович Зазнобин. Видеоархив"
    INDEX 01 55:36:02
  TRACK 194 AUDIO
    TITLE "00:55:51.10190"
    PERFORMER "Владимир Михайлович Зазнобин. Видеоархив"
    INDEX 01 55:51:08
  TRACK 195 AUDIO
    TITLE "00:56:04.66091"
    PERFORMER "Владимир Михайлович Зазнобин. Видеоархив"
    INDEX 01 56:04:50
  TRACK 196 AUDIO
    TITLE "00:56:22.86202"
    PERFORMER "Владимир Михайлович Зазнобин. Видеоархив"
    INDEX 01 56:22:65
  TRACK 197 AUDIO
    TITLE "00:56:37.06467"
    PERFORMER "Владимир Михайлович Зазнобин. Видеоархив"
    INDEX 01 56:37:05
  TRACK 198 AUDIO
    TITLE "00:56:50.32041"
    PERFORMER "Владимир Михайлович Зазнобин. Видеоархив"
    INDEX 01 56:50:24
  TRACK 199 AUDIO
    TITLE "00:57:16.05546"
    PERFORMER "Владимир Михайлович Зазнобин. Видеоархив"
    INDEX 01 57:16:04
  TRACK 200 AUDIO
    TITLE "00:57:28.98426"
    PERFORMER "Владимир Михайлович Зазнобин. Видеоархив"
    INDEX 01 57:28:74
  TRACK 201 AUDIO
    TITLE "00:57:45.23909"
    PERFORMER "Владимир Михайлович Зазнобин. Видеоархив"
    INDEX 01 57:45:18
  TRACK 202 AUDIO
    TITLE "00:58:02.96002"
    PERFORMER "Владимир Михайлович Зазнобин. Видеоархив"
    INDEX 01 58:02:72
  TRACK 203 AUDIO
    TITLE "00:58:42.25787"
    PERFORMER "Владимир Михайлович Зазнобин. Видеоархив"
    INDEX 01 58:42:19
  TRACK 204 AUDIO
    TITLE "00:59:00.10930"
    PERFORMER "Владимир Михайлович Зазнобин. Видеоархив"
    INDEX 01 59:00:08
  TRACK 205 AUDIO
    TITLE "00:59:13.71286"
    PERFORMER "Владимир Михайлович Зазнобин. Видеоархив"
    INDEX 01 59:13:53
  TRACK 206 AUDIO
    TITLE "00:59:29.15361"
    PERFORMER "Владимир Михайлович Зазнобин. Видеоархив"
    INDEX 01 59:29:12
  TRACK 207 AUDIO
    TITLE "01:00:00.11873"
    PERFORMER "Владимир Михайлович Зазнобин. Видеоархив"
    INDEX 01 60:00:09
  TRACK 208 AUDIO
    TITLE "01:00:20.40268"
    PERFORMER "Владимир Михайлович Зазнобин. Видеоархив"
    INDEX 01 60:20:30
  TRACK 209 AUDIO
    TITLE "01:00:37.07546"
    PERFORMER "Владимир Михайлович Зазнобин. Видеоархив"
    INDEX 01 60:37:06
  TRACK 210 AUDIO
    TITLE "01:00:58.05649"
    PERFORMER "Владимир Михайлович Зазнобин. Видеоархив"
    INDEX 01 60:58:04
  TRACK 211 AUDIO
    TITLE "01:01:13.42710"
    PERFORMER "Владимир Михайлович Зазнобин. Видеоархив"
    INDEX 01 61:13:32
  TRACK 212 AUDIO
    TITLE "01:01:27.79692"
    PERFORMER "Владимир Михайлович Зазнобин. Видеоархив"
    INDEX 01 61:27:60
  TRACK 213 AUDIO
    TITLE "01:01:40.85621"
    PERFORMER "Владимир Михайлович Зазнобин. Видеоархив"
    INDEX 01 61:40:64
  TRACK 214 AUDIO
    TITLE "01:01:59.03782"
    PERFORMER "Владимир Михайлович Зазнобин. Видеоархив"
    INDEX 01 61:59:03
  TRACK 215 AUDIO
    TITLE "01:02:15.37857"
    PERFORMER "Владимир Михайлович Зазнобин. Видеоархив"
    INDEX 01 62:15:28
  TRACK 216 AUDIO
    TITLE "01:02:37.90696"
    PERFORMER "Владимир Михайлович Зазнобин. Видеоархив"
    INDEX 01 62:37:68
  TRACK 217 AUDIO
    TITLE "01:02:50.97925"
    PERFORMER "Владимир Михайлович Зазнобин. Видеоархив"
    INDEX 01 62:50:73
  TRACK 218 AUDIO
    TITLE "01:03:22.54392"
    PERFORMER "Владимир Михайлович Зазнобин. Видеоархив"
    INDEX 01 63:22:41
  TRACK 219 AUDIO
    TITLE "01:03:40.19660"
    PERFORMER "Владимир Михайлович Зазнобин. Видеоархив"
    INDEX 01 63:40:15
  TRACK 220 AUDIO
    TITLE "01:03:53.85914"
    PERFORMER "Владимир Михайлович Зазнобин. Видеоархив"
    INDEX 01 63:53:64
  TRACK 221 AUDIO
    TITLE "01:04:19.07687"
    PERFORMER "Владимир Михайлович Зазнобин. Видеоархив"
    INDEX 01 64:19:06
  TRACK 222 AUDIO
    TITLE "01:04:37.82830"
    PERFORMER "Владимир Михайлович Зазнобин. Видеоархив"
    INDEX 01 64:37:62
  TRACK 223 AUDIO
    TITLE "01:04:54.68685"
    PERFORMER "Владимир Михайлович Зазнобин. Видеоархив"
    INDEX 01 64:54:52
  TRACK 224 AUDIO
    TITLE "01:05:15.71848"
    PERFORMER "Владимир Михайлович Зазнобин. Видеоархив"
    INDEX 01 65:15:54
  TRACK 225 AUDIO
    TITLE "01:05:32.72052"
    PERFORMER "Владимир Михайлович Зазнобин. Видеоархив"
    INDEX 01 65:32:54
  TRACK 226 AUDIO
    TITLE "01:05:54.61687"
    PERFORMER "Владимир Михайлович Зазнобин. Видеоархив"
    INDEX 01 65:54:46
  TRACK 227 AUDIO
    TITLE "01:06:08.70898"
    PERFORMER "Владимир Михайлович Зазнобин. Видеоархив"
    INDEX 01 66:08:53
  TRACK 228 AUDIO
    TITLE "01:06:22.45791"
    PERFORMER "Владимир Михайлович Зазнобин. Видеоархив"
    INDEX 01 66:22:34
  TRACK 229 AUDIO
    TITLE "01:06:40.29819"
    PERFORMER "Владимир Михайлович Зазнобин. Видеоархив"
    INDEX 01 66:40:22
  TRACK 230 AUDIO
    TITLE "01:06:53.67839"
    PERFORMER "Владимир Михайлович Зазнобин. Видеоархив"
    INDEX 01 66:53:51
  TRACK 231 AUDIO
    TITLE "01:07:06.86354"
    PERFORMER "Владимир Михайлович Зазнобин. Видеоархив"
    INDEX 01 67:06:65
  TRACK 232 AUDIO
    TITLE "01:07:23.08306"
    PERFORMER "Владимир Михайлович Зазнобин. Видеоархив"
    INDEX 01 67:23:06
  TRACK 233 AUDIO
    TITLE "01:07:41.31111"
    PERFORMER "Владимир Михайлович Зазнобин. Видеоархив"
    INDEX 01 67:41:23
  TRACK 234 AUDIO
    TITLE "01:08:02.17138"
    PERFORMER "Владимир Михайлович Зазнобин. Видеоархив"
    INDEX 01 68:02:13
  TRACK 235 AUDIO
    TITLE "01:08:21.94683"
    PERFORMER "Владимир Михайлович Зазнобин. Видеоархив"
    INDEX 01 68:21:71
  TRACK 236 AUDIO
    TITLE "01:08:34.90209"
    PERFORMER "Владимир Михайлович Зазнобин. Видеоархив"
    INDEX 01 68:34:68
  TRACK 237 AUDIO
    TITLE "01:08:49.10057"
    PERFORMER "Владимир Михайлович Зазнобин. Видеоархив"
    INDEX 01 68:49:08
  TRACK 238 AUDIO
    TITLE "01:09:10.45680"
    PERFORMER "Владимир Михайлович Зазнобин. Видеоархив"
    INDEX 01 69:10:34
  TRACK 239 AUDIO
    TITLE "01:09:30.59354"
    PERFORMER "Владимир Михайлович Зазнобин. Видеоархив"
    INDEX 01 69:30:45
  TRACK 240 AUDIO
    TITLE "01:09:44.04340"
    PERFORMER "Владимир Михайлович Зазнобин. Видеоархив"
    INDEX 01 69:44:03
  TRACK 241 AUDIO
    TITLE "01:10:01.09653"
    PERFORMER "Владимир Михайлович Зазнобин. Видеоархив"
    INDEX 01 70:01:07
  TRACK 242 AUDIO
    TITLE "01:10:14.55846"
    PERFORMER "Владимир Михайлович Зазнобин. Видеоархив"
    INDEX 01 70:14:42
  TRACK 243 AUDIO
    TITLE "01:10:28.93571"
    PERFORMER "Владимир Михайлович Зазнобин. Видеоархив"
    INDEX 01 70:28:70
  TRACK 244 AUDIO
    TITLE "01:10:43.84145"
    PERFORMER "Владимир Михайлович Зазнобин. Видеоархив"
    INDEX 01 70:43:63
  TRACK 245 AUDIO
    TITLE "01:10:59.40433"
    PERFORMER "Владимир Михайлович Зазнобин. Видеоархив"
    INDEX 01 70:59:30
  TRACK 246 AUDIO
    TITLE "01:11:15.01084"
    PERFORMER "Владимир Михайлович Зазнобин. Видеоархив"
    INDEX 01 71:15:01
  TRACK 247 AUDIO
    TITLE "01:11:36.53800"
    PERFORMER "Владимир Михайлович Зазнобин. Видеоархив"
    INDEX 01 71:36:40
  TRACK 248 AUDIO
    TITLE "01:11:50.24698"
    PERFORMER "Владимир Михайлович Зазнобин. Видеоархив"
    INDEX 01 71:50:19
  TRACK 249 AUDIO
    TITLE "01:12:24.17823"
    PERFORMER "Владимир Михайлович Зазнобин. Видеоархив"
    INDEX 01 72:24:13
  TRACK 250 AUDIO
    TITLE "01:12:39.63429"
    PERFORMER "Владимир Михайлович Зазнобин. Видеоархив"
    INDEX 01 72:39:48
  TRACK 251 AUDIO
    TITLE "01:13:04.80093"
    PERFORMER "Владимир Михайлович Зазнобин. Видеоархив"
    INDEX 01 73:04:60
  TRACK 252 AUDIO
    TITLE "01:13:17.85141"
    PERFORMER "Владимир Михайлович Зазнобин. Видеоархив"
    INDEX 01 73:17:64
  TRACK 253 AUDIO
    TITLE "01:13:33.66179"
    PERFORMER "Владимир Михайлович Зазнобин. Видеоархив"
    INDEX 01 73:33:50
  TRACK 254 AUDIO
    TITLE "01:13:51.04651"
    PERFORMER "Владимир Михайлович Зазнобин. Видеоархив"
    INDEX 01 73:51:03
  TRACK 255 AUDIO
    TITLE "01:14:05.90580"
    PERFORMER "Владимир Михайлович Зазнобин. Видеоархив"
    INDEX 01 74:05:68
  TRACK 256 AUDIO
    TITLE "01:14:25.50245"
    PERFORMER "Владимир Михайлович Зазнобин. Видеоархив"
    INDEX 01 74:25:38
  TRACK 257 AUDIO
    TITLE "01:14:44.37091"
    PERFORMER "Владимир Михайлович Зазнобин. Видеоархив"
    INDEX 01 74:44:28
  TRACK 258 AUDIO
    TITLE "01:15:06.92066"
    PERFORMER "Владимир Михайлович Зазнобин. Видеоархив"
    INDEX 01 75:06:69
  TRACK 259 AUDIO
    TITLE "01:15:20.92735"
    PERFORMER "Владимир Михайлович Зазнобин. Видеоархив"
    INDEX 01 75:20:70
  TRACK 260 AUDIO
    TITLE "01:15:34.87596"
    PERFORMER "Владимир Михайлович Зазнобин. Видеоархив"
    INDEX 01 75:34:66
  TRACK 261 AUDIO
    TITLE "01:15:59.33717"
    PERFORMER "Владимир Михайлович Зазнобин. Видеоархив"
    INDEX 01 75:59:25
  TRACK 262 AUDIO
    TITLE "01:16:14.54200"
    PERFORMER "Владимир Михайлович Зазнобин. Видеоархив"
    INDEX 01 76:14:41
  TRACK 263 AUDIO
    TITLE "01:16:42.46810"
    PERFORMER "Владимир Михайлович Зазнобин. Видеоархив"
    INDEX 01 76:42:35
  TRACK 264 AUDIO
    TITLE "01:17:00.31488"
    PERFORMER "Владимир Михайлович Зазнобин. Видеоархив"
    INDEX 01 77:00:24
  TRACK 265 AUDIO
    TITLE "01:17:14.79617"
    PERFORMER "Владимир Михайлович Зазнобин. Видеоархив"
    INDEX 01 77:14:60
  TRACK 266 AUDIO
    TITLE "01:17:40.52937"
    PERFORMER "Владимир Михайлович Зазнобин. Видеоархив"
    INDEX 01 77:40:40
  TRACK 267 AUDIO
    TITLE "01:17:55.92832"
    PERFORMER "Владимир Михайлович Зазнобин. Видеоархив"
    INDEX 01 77:55:70
  TRACK 268 AUDIO
    TITLE "01:18:10.29721"
    PERFORMER "Владимир Михайлович Зазнобин. Видеоархив"
    INDEX 01 78:10:22
  TRACK 269 AUDIO
    TITLE "01:18:32.31662"
    PERFORMER "Владимир Михайлович Зазнобин. Видеоархив"
    INDEX 01 78:32:24
  TRACK 270 AUDIO
    TITLE "01:18:48.54916"
    PERFORMER "Владимир Михайлович Зазнобин. Видеоархив"
    INDEX 01 78:48:41
  TRACK 271 AUDIO
    TITLE "01:19:02.02408"
    PERFORMER "Владимир Михайлович Зазнобин. Видеоархив"
    INDEX 01 79:02:02
  TRACK 272 AUDIO
    TITLE "01:19:20.16531"
    PERFORMER "Владимир Михайлович Зазнобин. Видеоархив"
    INDEX 01 79:20:12
  TRACK 273 AUDIO
    TITLE "01:19:36.58823"
    PERFORMER "Владимир Михайлович Зазнобин. Видеоархив"
    INDEX 01 79:36:44
  TRACK 274 AUDIO
    TITLE "01:19:58.17900"
    PERFORMER "Владимир Михайлович Зазнобин. Видеоархив"
    INDEX 01 79:58:13
  TRACK 275 AUDIO
    TITLE "01:20:12.60503"
    PERFORMER "Владимир Михайлович Зазнобин. Видеоархив"
    INDEX 01 80:12:45
  TRACK 276 AUDIO
    TITLE "01:20:27.76805"
    PERFORMER "Владимир Михайлович Зазнобин. Видеоархив"
    INDEX 01 80:27:58
  TRACK 277 AUDIO
    TITLE "01:20:42.82379"
    PERFORMER "Владимир Михайлович Зазнобин. Видеоархив"
    INDEX 01 80:42:62
  TRACK 278 AUDIO
    TITLE "01:21:11.25007"
    PERFORMER "Владимир Михайлович Зазнобин. Видеоархив"
    INDEX 01 81:11:19
  TRACK 279 AUDIO
    TITLE "01:21:29.12145"
    PERFORMER "Владимир Михайлович Зазнобин. Видеоархив"
    INDEX 01 81:29:09
  TRACK 280 AUDIO
    TITLE "01:22:00.79202"
    PERFORMER "Владимир Михайлович Зазнобин. Видеоархив"
    INDEX 01 82:00:59
  TRACK 281 AUDIO
    TITLE "01:22:14.14991"
    PERFORMER "Владимир Михайлович Зазнобин. Видеоархив"
    INDEX 01 82:14:11
  TRACK 282 AUDIO
    TITLE "01:22:29.19497"
    PERFORMER "Владимир Михайлович Зазнобин. Видеоархив"
    INDEX 01 82:29:15
  TRACK 283 AUDIO
    TITLE "01:22:42.29839"
    PERFORMER "Владимир Михайлович Зазнобин. Видеоархив"
    INDEX 01 82:42:22
  TRACK 284 AUDIO
    TITLE "01:22:55.66744"
    PERFORMER "Владимир Михайлович Зазнобин. Видеоархив"
    INDEX 01 82:55:50
  TRACK 285 AUDIO
    TITLE "01:23:17.35574"
    PERFORMER "Владимир Михайлович Зазнобин. Видеоархив"
    INDEX 01 83:17:27
  TRACK 286 AUDIO
    TITLE "01:23:32.96458"
    PERFORMER "Владимир Михайлович Зазнобин. Видеоархив"
    INDEX 01 83:32:72
  TRACK 287 AUDIO
    TITLE "01:23:54.06680"
    PERFORMER "Владимир Михайлович Зазнобин. Видеоархив"
    INDEX 01 83:54:05
  TRACK 288 AUDIO
    TITLE "01:24:11.80537"
    PERFORMER "Владимир Михайлович Зазнобин. Видеоархив"
    INDEX 01 84:11:60
  TRACK 289 AUDIO
    TITLE "01:24:27.18481"
    PERFORMER "Владимир Михайлович Зазнобин. Видеоархив"
    INDEX 01 84:27:14
  TRACK 290 AUDIO
    TITLE "01:24:44.10930"
    PERFORMER "Владимир Михайлович Зазнобин. Видеоархив"
    INDEX 01 84:44:08
  TRACK 291 AUDIO
    TITLE "01:25:01.57621"
    PERFORMER "Владимир Михайлович Зазнобин. Видеоархив"
    INDEX 01 85:01:43
  TRACK 292 AUDIO
    TITLE "01:25:17.82034"
    PERFORMER "Владимир Михайлович Зазнобин. Видеоархив"
    INDEX 01 85:17:62
  TRACK 293 AUDIO
    TITLE "01:25:31.44063"
    PERFORMER "Владимир Михайлович Зазнобин. Видеоархив"
    INDEX 01 85:31:33
  TRACK 294 AUDIO
    TITLE "01:25:45.78492"
    PERFORMER "Владимир Михайлович Зазнобин. Видеоархив"
    INDEX 01 85:45:59
  TRACK 295 AUDIO
    TITLE "01:25:59.61605"
    PERFORMER "Владимир Михайлович Зазнобин. Видеоархив"
    INDEX 01 85:59:46
  TRACK 296 AUDIO
    TITLE "01:26:32.78846"
    PERFORMER "Владимир Михайлович Зазнобин. Видеоархив"
    INDEX 01 86:32:59
  TRACK 297 AUDIO
    TITLE "01:26:53.38821"
    PERFORMER "Владимир Михайлович Зазнобин. Видеоархив"
    INDEX 01 86:53:29
  TRACK 298 AUDIO
    TITLE "01:27:08.42259"
    PERFORMER "Владимир Михайлович Зазнобин. Видеоархив"
    INDEX 01 87:08:32
  TRACK 299 AUDIO
    TITLE "01:27:23.07152"
    PERFORMER "Владимир Михайлович Зазнобин. Видеоархив"
    INDEX 01 87:23:05
  TRACK 300 AUDIO
    TITLE "01:27:39.86830"
    PERFORMER "Владимир Михайлович Зазнобин. Видеоархив"
    INDEX 01 87:39:65
  TRACK 301 AUDIO
    TITLE "01:27:57.74621"
    PERFORMER "Владимир Михайлович Зазнобин. Видеоархив"
    INDEX 01 87:57:56
  TRACK 302 AUDIO
    TITLE "01:28:11.74961"
    PERFORMER "Владимир Михайлович Зазнобин. Видеоархив"
    INDEX 01 88:11:56
  TRACK 303 AUDIO
    TITLE "01:28:25.91465"
    PERFORMER "Владимир Михайлович Зазнобин. Видеоархив"
    INDEX 01 88:25:69
  TRACK 304 AUDIO
    TITLE "01:28:50.77478"
    PERFORMER "Владимир Михайлович Зазнобин. Видеоархив"
    INDEX 01 88:50:58
  TRACK 305 AUDIO
    TITLE "01:29:08.48039"
    PERFORMER "Владимир Михайлович Зазнобин. Видеоархив"
    INDEX 01 89:08:36
  TRACK 306 AUDIO
    TITLE "01:29:29.38524"
    PERFORMER "Владимир Михайлович Зазнобин. Видеоархив"
    INDEX 01 89:29:29
  TRACK 307 AUDIO
    TITLE "01:29:42.44639"
    PERFORMER "Владимир Михайлович Зазнобин. Видеоархив"
    INDEX 01 89:42:33
  TRACK 308 AUDIO
    TITLE "01:30:02.41642"
    PERFORMER "Владимир Михайлович Зазнобин. Видеоархив"
    INDEX 01 90:02:31
  TRACK 309 AUDIO
    TITLE "01:30:22.18766"
    PERFORMER "Владимир Михайлович Зазнобин. Видеоархив"
    INDEX 01 90:22:14
  TRACK 310 AUDIO
    TITLE "01:30:36.61184"
    PERFORMER "Владимир Михайлович Зазнобин. Видеоархив"
    INDEX 01 90:36:46
  TRACK 311 AUDIO
    TITLE "01:30:51.21247"
    PERFORMER "Владимир Михайлович Зазнобин. Видеоархив"
    INDEX 01 90:51:16
  TRACK 312 AUDIO
    TITLE "01:31:08.66730"
    PERFORMER "Владимир Михайлович Зазнобин. Видеоархив"
    INDEX 01 91:08:50
  TRACK 313 AUDIO
    TITLE "01:31:22.70463"
    PERFORMER "Владимир Михайлович Зазнобин. Видеоархив"
    INDEX 01 91:22:53
  TRACK 314 AUDIO
    TITLE "01:31:37.49937"
    PERFORMER "Владимир Михайлович Зазнобин. Видеоархив"
    INDEX 01 91:37:37
  TRACK 315 AUDIO
    TITLE "01:31:51.44753"
    PERFORMER "Владимир Михайлович Зазнобин. Видеоархив"
    INDEX 01 91:51:34
  TRACK 316 AUDIO
    TITLE "01:32:04.59971"
    PERFORMER "Владимир Михайлович Зазнобин. Видеоархив"
    INDEX 01 92:04:45
  TRACK 317 AUDIO
    TITLE "01:32:20.15560"
    PERFORMER "Владимир Михайлович Зазнобин. Видеоархив"
    INDEX 01 92:20:12
  TRACK 318 AUDIO
    TITLE "01:32:33.08440"
    PERFORMER "Владимир Михайлович Зазнобин. Видеоархив"
    INDEX 01 92:33:06
  TRACK 319 AUDIO
    TITLE "01:33:03.08823"
    PERFORMER "Владимир Михайлович Зазнобин. Видеоархив"
    INDEX 01 93:03:07
  TRACK 320 AUDIO
    TITLE "01:33:17.94288"
    PERFORMER "Владимир Михайлович Зазнобин. Видеоархив"
    INDEX 01 93:17:71
  TRACK 321 AUDIO
    TITLE "01:33:38.75533"
    PERFORMER "Владимир Михайлович Зазнобин. Видеоархив"
    INDEX 01 93:38:57
  TRACK 322 AUDIO
    TITLE "01:33:57.90476"
    PERFORMER "Владимир Михайлович Зазнобин. Видеоархив"
    INDEX 01 93:57:68
  TRACK 323 AUDIO
    TITLE "01:34:23.77356"
    PERFORMER "Владимир Михайлович Зазнобин. Видеоархив"
    INDEX 01 94:23:58
  TRACK 324 AUDIO
    TITLE "01:34:43.20952"
    PERFORMER "Владимир Михайлович Зазнобин. Видеоархив"
    INDEX 01 94:43:16
  TRACK 325 AUDIO
    TITLE "01:35:18.45828"
    PERFORMER "Владимир Михайлович Зазнобин. Видеоархив"
    INDEX 01 95:18:34
  TRACK 326 AUDIO
    TITLE "01:35:32.59683"
    PERFORMER "Владимир Михайлович Зазнобин. Видеоархив"
    INDEX 01 95:32:45
  TRACK 327 AUDIO
    TITLE "01:36:00.23639"
    PERFORMER "Владимир Михайлович Зазнобин. Видеоархив"
    INDEX 01 96:00:18
  TRACK 328 AUDIO
    TITLE "01:36:16.95515"
    PERFORMER "Владимир Михайлович Зазнобин. Видеоархив"
    INDEX 01 96:16:72
  TRACK 329 AUDIO
    TITLE "01:36:30.43240"
    PERFORMER "Владимир Михайлович Зазнобин. Видеоархив"
    INDEX 01 96:30:32
  TRACK 330 AUDIO
    TITLE "01:36:48.12918"
    PERFORMER "Владимир Михайлович Зазнобин. Видеоархив"
    INDEX 01 96:48:10
  TRACK 331 AUDIO
    TITLE "01:37:02.66342"
    PERFORMER "Владимир Михайлович Зазнобин. Видеоархив"
    INDEX 01 97:02:50
  TRACK 332 AUDIO
    TITLE "01:37:19.05757"
    PERFORMER "Владимир Михайлович Зазнобин. Видеоархив"
    INDEX 01 97:19:04
